<!-- Created with Inkscape (http://www.inkscape.org/) -->
<svg xmlns:rdf="http://www.w3.org/1999/02/22-rdf-syntax-ns#" xmlns="http://www.w3.org/2000/svg" height="128" width="128" version="1.1" xmlns:cc="http://creativecommons.org/ns#" xmlns:dc="http://purl.org/dc/elements/1.1/">
	<metadata>
		<rdf:RDF>
			<cc:Work rdf:about="">
				<dc:format>image/svg+xml</dc:format>
				<dc:type rdf:resource="http://purl.org/dc/dcmitype/StillImage"/>
				<dc:title/>
			</cc:Work>
		</rdf:RDF>
	</metadata>
	<path d="M64,32c-26.5,0-48,7.2-48,16v48c0,8.84,21.5,16,48,16s48-7.16,48-16v-48c0-8.8-21.5-16-48-16z" stroke="#000" stroke-miterlimit="4" stroke-dasharray="none" stroke-width="4" fill="#ffffc0"/>
	<path d="M112,48c0,8.8-21.5,16-48,16s-48-7.2-48-16" stroke="#000" stroke-dasharray="none" stroke-miterlimit="4" stroke-width="4" fill="none"/>
	<path d="M64,72c-26.5,0-48-7.2-48-16" stroke="#000" stroke-dasharray="none" stroke-miterlimit="4" stroke-width="4" fill="none"/>
	<path d="m64,80c-26.5,0-48-7.16-48-16" stroke="#000" stroke-dasharray="none" stroke-miterlimit="4" stroke-width="4" fill="none"/>
	<path d="M112,72c0,8.8-21.5,16-48,16s-48-7.2-48-16" stroke="#000" stroke-dasharray="none" stroke-miterlimit="4" stroke-width="4" fill="none"/>
	<path d="m64,96c-26.5,0-48-7.16-48-16" stroke="#000" stroke-dasharray="none" stroke-miterlimit="4" stroke-width="4" fill="none"/>
	<path d="m64,104c-26.5,0-48-7.16-48-16" stroke="#000" stroke-dasharray="none" stroke-miterlimit="4" stroke-width="4" fill="none"/>
	<path d="m94,48c0,4.42-13.4,8-30,8s-30-3.58-30-8,13.4-8,30-8,30,3.58,30,8z" stroke="#000" stroke-miterlimit="4" stroke-width="4" fill="none"/>
</svg>
