/* XPM */
static char * scene_xpm[] = {
"204 34 8 1",
" 	c #C8C8C3C36565 m white",
",	c #000000000000 m black",
".	c #000000000000 m black",
"X	c #7777A2A26D6D m white",
"o	c #7777A2A26D6D m black s paper",
"O	c None",
"+	c #FFFF00000000 m black",
"@	c #FFFFFFFFCCCC m white s pen",
"                                 ,XXoXXXoXXXoXXXoXXXoXXXoXXXoXXXoXX.OOOOOOOOOOOOOOOOOOOOOOOOOOOOOOOOOOOOOOOOOOOOOOOOOOOOOOOOOOOOOOOOOOOOOOOOOOOOOOOOOOOOOOOOOOOOOOOOOOOOOOOOOOOOOOOOOOOOOOOOOOOOOOOOOOOOOOOO",
"                                 ,XoXXXoXXXoXXXoXXXoXXXoXXXoXXXoXXX.OOOOOOOOOOOOOOOOOOOOOOOOOOOOOOOOOOOOOOOOOOOOOOOOOOOOOOOOOOOOOOOOOOOOOOOOOOOOOOOOOOOOOOOOOOOOOOOOOOOOOOOOOOOOOOOOOOOOOOOOOOOOOOOOOOOOOOOO",
"                                 ,oXXXoXXXoXXXoXXXoXXXoXXXoXXXoXXXo.OOOOOOOOOOOOOOOOOOOOOOOOOOOOOOOOOOOOOOOOOOOOOOOOOOOOOOOOOOOOOOOOOOOOOOOOOOOOOOOOOOOOOOOOOOOOOOOOOOOOOOOOOOOOOOOOOOOOOOOOOOOOOOOOOOOOOOOO",
"                                 ,XXXoXXXoXXXoXXXoXXXoXXXoXXXoXXXoX.OOOOOOOOOOOOOOOOOOOOOOOOOOOOOOOOOOOOOOOOOOOOOOOOOOOOOOOOOOOOOOOOOOOOOOOOOOOOOOOOOOOOOOOOOOOOOOOOOOOOOOOOOOOOOOOOOOOOOOOOOOOOOOOOOOOOOOOO",
"                                 ,XXoXXXoXXXoXXXoXXXoXXXoXXXoXXXoXX.OOOOOOOOOOOOOOOOOOOOOOOOOOOOOOOOOOOOOOOOOOOOOOOOOOOOOOOOOOOOOOOOOOOOOOOOOOOOOOOOOOOOOOOOOOOOOOOOOOOOOOOOOOOOOOOOOOOOOOOOOOOOOOOOOOOOOOOO",
"                                 ,XoXXXoXXXoXXXoXXXoXXXoXXXoXXXoXXX.OOOOOOOOOOOOOOOOOOOOOOOOOOOOOOOOOOOOOOOOOOOOOOOOOOOOOOOOOOOOOOOOOOOOOOOOOOOOOOOOOOOOOOOOOOOOOOOOOOOOOOOOOOOOOOOOOOOOOOOOOOOOOOOOOOOOOOOO",
"                                 ,oXXXoXXXoXXXoXXXoXXXoXXXoXXXoXXXo.OOOOOOOOOOOOOOOOOOOOOOOOOOOOOOOOOOOOOOOOOOOOOOOOOOOOOOOOOOOOOOOOOOOOOOOOOOOOOOOOOOOOOOOOOOOOOOOOOOOOOOOOOOOOOOOOOOOOOOOOOOOOOOOOOOOOOOOO",
"                                 ,XXXoXXXoXXXoXXXoXXXoXXXoXXXoXXXoX.OOOOOOOOOOOOOOOOOOOOOOOOOOOOOOOOOOOOOOOOOOOOOOOOOOOOOOOOOOOOOOOOOOOOOOOOOOOOOOOOOOOOOOOOOOOOOOOOOOOOOOOOOOOOOOOOOOOOOOOOOOOOOOOOOOOOOOOO",
"                                 ,XXoXXXoXXXoXXXoXXXoXXXoXXXoXXXoXX.OOOOOOOOOOOOOOOOOOOOOOOOOOOOOOOOOOOOOOOOOOOOOOOOOOOOOOOOOOOOOOOOOOOOOOOOOOOOOO+++++++++++++OOOOOOOOOOOOOOOOOOOOO.............OOOOOOOOOOO",
"                                 ,XoXXXoXXXoXXXoXXXoXXXoXXXoXXXoXXX.OOOOOOOOOOOOOOOOOOOOOOOOOOOOOOOOOOOOOOOOOOOOOOOOOOOOOOOOOOOOOOOOOOOOOOOOOO+++++++++++++++++++++OOOOOOOOOOOOO....@@@@@@@@@@@@@....OOOOOOO",
"                                 ,oXXXoXXXoXXXoXXXoXXXoXXXoXXXoXXXo.OOOOOOOOOOOOOOOOOOOOOOOOOOOOOOOOOOOOOOOOOOOOOOOOOOOOOOOOOOOOOOOOOOOOOOOO++++++++@@@@@@@@@++++++++OOOOOOOOO..@@@@@@.........@@@@@@..OOOOO",
"                                 ,XXXoXXXoXXXoXXXoXXXoXXXoXXXoXXXoX.OOOOOOOOOOOOOOOOOOOOOOOOOOOOOOOOOOOOOOOOOOOOOOOOOOOOOOOOOOOOOOOOOOOOOOO++++++@@@+++++++++@@@++++++OOOOOOO.@@@@@...@@@@@@@@@...@@@@@.OOOO",
"                                 ,XXoXXXoXXXoXXXoXXXoXXXoXXXoXXXoXX.OOOOOOOOOOOOOOOOOOOOOOOOOOOOOOOOOOOOOOOOOOOOOOOOOOOOOOOOOOOOOOOOOOOOOO+++++@@+++++++++++++++@@+++++OOOOO.@@@@..@@@@@@@@@@@@@@@..@@@@.OOO",
"                                 ,XoXXXoXXXoXXXoXXXoXXXoXXXoXXXoXXX.OOOOOOOOOOOOOOOOOOOOOOOOOOOOOOOOOOOOOOOOOOOOOOOOOOOOOOOOOOOOOOOOOOOOOO++++@+++++++++++++++++++@++++OOOOO.@@@.@@@@@@@@@@@@@@@@@@@.@@@.OOO",
"                                 ,oXXXoXXXoXXXoXXXoXXXoXXXoXXXoXXXo.OOOOOOOOOO+++++++++++++OOOOOOOOOOOOOOOOOOOOO.............OOOOOOOOOOOOO+++++@@+++++++++++++++@@+++++OOOOO.@@@@..@@@@@@@@@@@@@@@..@@@@.OOO",
"                                 ,XXXoXXXoXXXoXXXoXXXoXXXoXXXoXXXoX.OOOOOO++++++++++++++++++++++OOOOOOOOOOOO....@@@@@@@@@@@@@.....OOOOOOOO+@+++++@@@+++++++++@@@+++++@+OOOOO..@@@@@...@@@@@@@@@...@@@@@..OOO",
"                                 ,XXoXXXoXXXoXXXoXXXoXXXoXXXoXXXoXX.OOOO++++++++@@@@@@@@@++++++++OOOOOOOOO..@@@@@@.........@@@@@@..OOOOOOO++@@++++++@@@@@@@@@++++++@@++OOOOO.@..@@@@@@.........@@@@@@..@.OOO",
"                                 ,XoXXXoXXXoXXXoXXXoXXXoXXXoXXXoXXX.OOO++++++@@@+++++++++@@@++++++OOOOOOO.@@@@@...@@@@@@@@@...@@@@@.OOOOOO++++@@@@+++++++++++++@@@@++@+OOOOO..@@....@@@@@@@@@@@@@....@@@.OOO",
"                                 ,oXXXoXXXoXXXoXXXoXXXoXXXoXXXoXXXo.OO+++++@@+++++++++++++++@@+++++OOOOO.@@@@..@@@@@@@@@@@@@@@..@@@@.OOOOO++++++++@@@@@@@@@@@@@++++@@++OOOOO.@..@@@@.............@@@@@@@.OOO",
"                                 ,XXXoXXXoXXXoXXXoXXXoXXXoXXXoXXXoX.OO++++@+++++++++++++++++++@++++OOOOO.@@@.@@@@@@@@@@@@@@@@@@@.@@@.OOOOO+++++++++++++++++++++@@@@++@+OOOOO..@@....@@@@@@@@@@@@@@@@@@@@.OOO",
"                                 ,XXoXXXoXXXoXXXoXXXoXXXoXXXoXXXoXX.OO+++++@@+++++++++++++++@@+++++OOOOO.@@@@..@@@@@@@@@@@@@@@..@@@@.OOOOO+++++++++++++++@@@@@@++++@@++OOOOO.@..@@@@......@@@@@@@@@@@@@@.OOO",
"                                 ,XoXXXoXXXoXXXoXXXoXXXoXXXoXXXoXXX.OO+@+++++@@@+++++++++@@@+++++@+OOOOO..@@@@@...@@@@@@@@@...@@@@@..OOOOO+@+++++++++++++++++++@@@@++@+OOOOO..@@....@@@@@@@@@@@@@@@@@@@..OOO",
"                                 ,oXXXoXXXoXXXoXXXoXXXoXXXoXXXoXXXo.OO++@@++++++@@@@@@@@@++++++@@++OOOOO.@..@@@@@@.........@@@@@@..@.OOOOO++@@+++++++++++@@@@@@++++@@++OOOOO.@..@@@@......@@@@@@@@@@@..@.OOO",
"                                 ,XXXoXXXoXXXoXXXoXXXoXXXoXXXoXXXoX.OO++++@@@@+++++++++++++@@@@++@+OOOOO..@@....@@@@@@@@@@@@@....@@@.OOOOO++++@@@@+++++++++++++@@@@++@+OOOOO..@@....@@@@@@@@@@@@@....@@@.OOO",
"                                 ,XXoXXXoXXXoXXXoXXXoXXXoXXXoXXXoXX.OO++++++++@@@@@@@@@@@@@++++@@++OOOOO.@..@@@@.............@@@@@@@.OOOOO++++++++@@@@@@@@@@@@@++++@@++OOOOO.@..@@@@.............@@@@@@@.OOO",
"                                 ,XoXXXoXXXoXXXoXXXoXXXoXXXoXXXoXXX.OO+++++++++++++++++++++@@@@++@+OOOOO..@@....@@@@@@@@@@@@@@@@@@@@.OOOOO+++++++++++++++++++++@@@@++@+OOOOO..@@....@@@@@@@@@@@@@@@@@@@@.OOO",
"                                 ,oXXXoXXXoXXXoXXXoXXXoXXXoXXXoXXXo.OO+++++++++++++++@@@@@@++++@@++OOOOO.@..@@@@......@@@@@@@@@@@@@@.OOOOO+++++++++++++++@@@@@@++++@@++OOOOO.@..@@@@......@@@@@@@@@@@@@@.OOO",
"                                 ,XXXoXXXoXXXoXXXoXXXoXXXoXXXoXXXoX.OOO++++++++++++++++++++@@@@+++OOOOOOO.@@....@@@@@@@@@@@@@@@@@@@.OOOOOOO++++++++++++++++++++@@@@+++OOOOOOO.@@....@@@@@@@@@@@@@@@@@@@.OOOO",
"                                 ,XXoXXXoXXXoXXXoXXXoXXXoXXXoXXXoXX.OOOO+++++++++++++@@@@@@++++++OOOOOOOOO..@@@@......@@@@@@@@@@@..OOOOOOOOO+++++++++++++@@@@@@++++++OOOOOOOOO..@@@@......@@@@@@@@@@@..OOOOO",
"                                 ,XoXXXoXXXoXXXoXXXoXXXoXXXoXXXoXXX.OOOOOO+++++++++++++++++++++OOOOOOOOOOOOO....@@@@@@@@@@@@@....OOOOOOOOOOOOO+++++++++++++++++++++OOOOOOOOOOOOO....@@@@@@@@@@@@@....OOOOOOO",
"                                 ,oXXXoXXXoXXXoXXXoXXXoXXXoXXXoXXXo.OOOOOOOOOO+++++++++++++OOOOOOOOOOOOOOOOOOOOO.............OOOOOOOOOOOOOOOOOOOOO+++++++++++++OOOOOOOOOOOOOOOOOOOOO.............OOOOOOOOOOO",
"                                 ,XXXoXXXoXXXoXXXoXXXoXXXoXXXoXXXoX.OOOOOOOOOOOOOOOOOOOOOOOOOOOOOOOOOOOOOOOOOOOOOOOOOOOOOOOOOOOOOOOOOOOOOOOOOOOOOOOOOOOOOOOOOOOOOOOOOOOOOOOOOOOOOOOOOOOOOOOOOOOOOOOOOOOOOOOO",
"                                 ,XXoXXXoXXXoXXXoXXXoXXXoXXXoXXXoXX.OOOOOOOOOOOOOOOOOOOOOOOOOOOOOOOOOOOOOOOOOOOOOOOOOOOOOOOOOOOOOOOOOOOOOOOOOOOOOOOOOOOOOOOOOOOOOOOOOOOOOOOOOOOOOOOOOOOOOOOOOOOOOOOOOOOOOOOO",
",,,,,,,,,,,,,,,,,,,,,,,,,,,,,,,,,,..................................OOOOOOOOOOOOOOOOOOOOOOOOOOOOOOOOOOOOOOOOOOOOOOOOOOOOOOOOOOOOOOOOOOOOOOOOOOOOOOOOOOOOOOOOOOOOOOOOOOOOOOOOOOOOOOOOOOOOOOOOOOOOOOOOOOOOOOOO"};
