/* XPM */
static char * stars_xpm[] = {
"204 34 19 1",
" 	c #000004040000 s paper",
".	c None",
"X	c #050504040505",
"o	c #0D0D0C0C0B0B",
"O	c #3F3F00000000",
"+	c #3F3F3F3F0000",
"@	c #555500000000",
"#	c #555555550000",
"$	c #7F7F00000000",
"%	c #7F7F7F7F0000",
"&	c #AAAA00000000",
"*	c #AAAAAAAA0000",
"=	c #BFBF00000000",
"-	c #BFBFBFBF0000",
";	c #CDCD00000000",
":	c #E0E0E0E00000",
">	c #FFFF00000000",
",	c #FFFFFFFF0000",
"<	c #0000FFFF0000 s pen",
"                                                                    ........................................................................................................................................",
"                                                                    ........................................................................................................................................",
"                                                                    ........................................................................................................................................",
"                                                                    ........................................................................................................................................",
"                                                                    ...............XX................................oo.....................................................................................",
"                                                                    ...............OO................................++.....................................................................................",
"                                                                    ...............@@................................##.....................................................................................",
"                                                                    ...............$$................................%%.....................................................................................",
"                                                                    ...............&&................................**.........................XO.............OX.................o+.............+o.........",
"                                                                    ...............==................................--.........................O@@...........@@O.................+##...........##+.........",
"                                                                    ...............;;................................::..........................@$&.........&$@...................#%*.........*%#..........",
"                                                                    ...............>>................................,,...........................&&=.......=&&.....................**-.......-**...........",
"                                                  <                 ...............>>................................,,............................=;>.....>;=.......................-:,.....,:-............",
"                                                  <                 ...............>>................................,,.............................>>>...>>>.........................,,,...,,,.............",
"                                                                    ...............>>................................,,..............................>>>.>>>...........................,,,.,,,..............",
"                                                                    ....XO@$&=;>>>>>>>>>>>;=&$@OX.........o+#%*-:,,,,,,,,,,,:-*%#+o...................>>>>>.............................,,,,,...............",
"                                              <<     <<             ....XO@$&=;>>>>>>>>>>>;=&$@OX.........o+#%*-:,,,,,,,,,,,:-*%#+o....................>>>...............................,,,................",
"                                                                    ...............>>................................,,...............................>>>>>.............................,,,,,...............",
"                                                                    ...............>>................................,,..............................>>>.>>>...........................,,,.,,,..............",
"                                                  <                 ...............>>................................,,.............................>>>...>>>.........................,,,...,,,.............",
"                                                  <                 ...............>>................................,,............................;>>.....>>;.......................:,,.....,,:............",
"                                                                    ...............>>................................,,...........................==;.......;==.....................--:.......:--...........",
"                                                                    ...............;;................................::..........................$&=.........=&$...................%*-.........-*%..........",
"                                                                    ...............==................................--.........................@$$...........$$@.................#%%...........%%#.........",
"                                                                    ...............&&................................**........................XO@.............@OX...............o+#.............#+o........",
"                                                                    ...............$$................................%%........................XX...............XX...............oo...............oo........",
"                                                                    ...............@@................................##.....................................................................................",
"                                                                    ...............OO................................++.....................................................................................",
"                                                                    ...............XX................................oo.....................................................................................",
"                                                                    ........................................................................................................................................",
"                                                                    ........................................................................................................................................",
"                                                                    ........................................................................................................................................",
"                                                                    ........................................................................................................................................",
"                                                                    ........................................................................................................................................"};
