/* XPM */
static char * scene_xpm[] = {
"34 24 8 1",
" 	c #C8C8C3C36565 m white",
",	c #000000000000 m black",
".	c #000000000000 m black",
"X	c #7777A2A26D6D m white",
"o	c #7777A2A26D6D m black s paper",
"O	c None",
"+	c #FFFF00000000 m black",
"@	c #FFFFFFFFCCCC m white s pen",
"OOOOOOOOOOOOOOOOOOOOOOOOOOOOOOOOOO",
"OOOOOOOOOOOOOOOOOOOOOOOOOOOOOOOOOO",
"OOOOOOOOOOOOOOOOOOOOOOOOOOOOOOOOOO",
"OOOOOOOOOOOOOOOOOOOOOOOOOOOOOOOOOO",
"OOOOOOOOOO.............OOOOOOOOOOO",
"OOOOOO....@@@@@@@@@@@@@.....OOOOOO",
"OOOO..@@@@@@.........@@@@@@..OOOOO",
"OOO.@@@@@...@@@@@@@@@...@@@@@.OOOO",
"OO.@@@@..@@@@@@@@@@@@@@@..@@@@.OOO",
"OO.@@@.@@@@@@@@@@@@@@@@@@@.@@@.OOO",
"OO.@@@@..@@@@@@@@@@@@@@@..@@@@.OOO",
"OO..@@@@@...@@@@@@@@@...@@@@@..OOO",
"OO.@..@@@@@@.........@@@@@@..@.OOO",
"OO..@@....@@@@@@@@@@@@@....@@@.OOO",
"OO.@..@@@@.............@@@@@@@.OOO",
"OO..@@....@@@@@@@@@@@@@@@@@@@@.OOO",
"OO.@..@@@@......@@@@@@@@@@@@@@.OOO",
"OOO.@@....@@@@@@@@@@@@@@@@@@@.OOOO",
"OOOO..@@@@......@@@@@@@@@@@..OOOOO",
"OOOOOO....@@@@@@@@@@@@@....OOOOOOO",
"OOOOOOOOOO.............OOOOOOOOOOO",
"OOOOOOOOOOOOOOOOOOOOOOOOOOOOOOOOOO",
"OOOOOOOOOOOOOOOOOOOOOOOOOOOOOOOOOO",
"OOOOOOOOOOOOOOOOOOOOOOOOOOOOOOOOOO"};
